<?xml version="1.0" standalone="yes"?>
<!DOCTYPE svg PUBLIC "-//W3C//DTD SVG 20010904//EN" "http://www.w3.org/TR/2001/REC-SVG-20010904/DTD/svg10.dtd">
<svg xmlns="http://www.w3.org/2000/svg" version="1.0" width="2048.000000pt" height="2732.000000pt" viewBox="0 0 2048.000000 2732.000000" preserveAspectRatio="xMidYMid meet" style="zoom: 0.25;"><g transform="translate(0.000000,2732.000000) scale(0.100000,-0.100000)" fill="#000000" stroke="none"><path d="M847 21028 c-20 -6 -51 -23 -67 -38 -27 -25 -30 -34 -30 -90 0 -34 7 -90 16 -124 20 -78 93 -219 141 -273 21 -23 58 -68 83 -99 133 -166 493 -466 920 -764 36 -25 88 -62 115 -81 577 -407 1139 -727 1623 -924 168 -68 547 -198 686 -235 160 -42 312 -81 351 -89 22 -5 74 -16 115 -24 41 -9 172 -32 290 -52 374 -63 462 -80 705 -136 753 -173 1161 -328 1358 -518 124 -118 209 -299 261 -554 33 -163 41 -244 40 -417 -2 -305 -83 -473 -324 -673 -262 -217 -748 -489 -1000 -560 -82 -23 -129 -29 -258 -32 -144 -3 -162 0 -162 30 0 50 39 69 367 174 171 56 374 151 545 256 333 206 525 378 610 544 28 56 33 75 33 135 0 39 -6 94 -13 122 l-13 51 -77 -15 c-42 -8 -93 -21 -112 -29 -75 -31 -191 -107 -335 -219 -531 -415 -756 -474 -1940 -510 -110 -3 -206 -7 -213 -10 -20 -6 -8 -47 52 -176 50 -106 117 -149 310 -198 190 -49 285 -96 403 -200 131 -115 320 -190 625 -246 305 -56 463 -125 484 -211 21 -82 -59 -326 -234 -710 -226 -498 -580 -954 -1268 -1633 -712 -702 -1213 -1078 -2209 -1662 -254 -149 -639 -366 -900 -508 -863 -470 -1365 -758 -1523 -874 -75 -56 -112 -123 -112 -205 0 -74 23 -157 41 -153 8 2 75 29 149 62 74 32 225 97 335 145 188 82 242 105 433 189 1530 675 2258 953 2761 1057 381 79 974 126 1231 99 372 -39 618 -188 801 -485 109 -175 252 -483 338 -725 147 -417 201 -669 243 -1140 17 -188 17 -1105 0 -1445 -6 -137 -17 -448 -23 -690 -13 -494 -12 -500 51 -543 28 -19 44 -23 82 -19 57 5 93 32 146 112 117 176 173 433 227 1040 110 1231 354 2374 769 3600 328 969 620 1503 995 1818 156 131 294 211 386 224 73 10 110 -3 177 -63 107 -93 201 -125 272 -92 35 15 50 41 75 125 28 92 53 125 95 121 l31 -3 3 -103 3 -104 124 4 c119 3 125 4 166 33 29 21 54 51 78 98 87 165 161 198 476 212 173 7 689 -10 897 -30 486 -46 916 -142 1438 -320 686 -234 1279 -528 1685 -833 359 -271 861 -792 1162 -1207 292 -403 514 -816 638 -1190 161 -487 224 -989 179 -1427 -77 -750 -370 -1331 -851 -1690 -221 -164 -502 -301 -763 -372 -319 -86 -707 -99 -1010 -34 -368 78 -687 260 -961 546 -391 407 -584 896 -541 1375 21 233 71 409 183 637 118 242 244 412 418 565 238 209 347 247 706 249 218 0 311 -14 444 -68 152 -62 344 -252 506 -500 119 -182 165 -321 165 -498 0 -179 -22 -255 -129 -456 -55 -103 -65 -168 -45 -306 9 -61 18 -112 19 -114 1 -2 67 13 146 33 176 45 273 88 332 149 51 52 115 169 151 277 28 84 48 256 41 353 -2 33 -7 97 -10 141 -35 474 -426 1064 -844 1275 -120 60 -294 111 -481 141 -125 20 -451 18 -566 -3 -256 -49 -539 -186 -776 -377 -332 -267 -606 -761 -700 -1261 -29 -153 -32 -494 -5 -638 54 -288 154 -570 315 -887 188 -370 342 -556 615 -743 181 -124 365 -198 658 -266 708 -163 1173 -175 1594 -39 364 118 683 304 1022 597 271 234 414 429 552 752 330 777 410 1497 245 2219 -104 455 -295 919 -565 1370 -135 225 -198 316 -552 803 -137 189 -246 346 -243 349 3 3 100 -19 216 -51 116 -31 263 -65 327 -76 187 -32 472 -44 723 -30 727 40 946 19 1118 -109 143 -106 269 -143 482 -144 224 0 435 46 676 147 324 137 638 411 946 826 152 205 157 269 29 374 -125 103 -296 178 -507 223 -118 25 -148 27 -349 28 -251 0 -333 -11 -526 -75 -267 -88 -505 -237 -864 -541 -253 -214 -510 -344 -730 -369 -101 -12 -378 -31 -382 -26 -2 2 69 50 158 106 265 169 366 249 572 450 244 237 364 416 471 702 134 360 236 1001 197 1247 -44 280 -231 341 -558 184 -99 -47 -195 -117 -302 -219 -236 -224 -416 -507 -482 -759 -22 -81 -24 -111 -24 -305 0 -171 5 -244 22 -355 45 -288 40 -451 -17 -573 -39 -84 -151 -194 -249 -246 -94 -49 -199 -61 -421 -46 -499 34 -795 134 -1680 565 -1479 721 -2311 944 -3522 945 -504 0 -823 57 -863 154 -43 103 11 196 175 304 126 84 232 196 309 327 35 61 70 120 78 133 l14 23 37 -22 c190 -114 422 -240 490 -267 157 -62 219 -73 435 -79 l197 -6 -6 34 c-22 117 -73 199 -225 364 -146 158 -257 348 -306 522 -25 88 -23 291 5 420 58 268 233 697 379 931 54 86 136 189 182 227 71 60 219 132 320 156 330 80 781 76 1306 -12 72 -12 153 -25 180 -29 28 -4 115 -22 195 -38 80 -17 231 -49 335 -71 835 -176 1580 -195 2505 -65 801 113 1758 385 2270 645 333 169 403 284 356 592 -7 48 -16 90 -19 94 -4 3 -47 -5 -95 -19 -80 -24 -358 -107 -967 -288 -430 -128 -540 -159 -785 -219 -764 -188 -1263 -248 -1978 -238 -673 9 -1132 61 -1695 193 -530 123 -916 180 -1422 209 -344 20 -519 39 -550 59 -37 24 -48 84 -42 221 16 362 182 769 448 1100 35 44 140 158 233 253 93 95 167 174 165 176 -2 2 -78 18 -169 36 -324 64 -433 96 -595 177 -119 60 -226 132 -364 243 -388 312 -653 407 -1173 417 -327 7 -501 -16 -694 -92 -433 -171 -800 -480 -1119 -940 -112 -162 -214 -254 -357 -319 -214 -99 -410 -115 -834 -66 -349 40 -639 93 -1024 190 -437 110 -698 160 -831 160 -253 0 -1128 285 -1849 602 -700 308 -1245 645 -1860 1148 -752 616 -827 662 -993 618z m9615 -2028 c85 -24 137 -108 145 -239 4 -62 1 -87 -17 -134 -33 -87 -88 -150 -165 -188 -61 -30 -70 -31 -143 -26 -186 13 -282 97 -282 247 0 66 25 171 54 228 28 55 73 89 146 108 56 16 212 17 262 4z m1301 -525 c-3 -75 -34 -152 -149 -373 -157 -301 -222 -558 -269 -1057 -34 -370 -60 -598 -81 -730 -43 -267 -89 -479 -140 -638 -113 -354 -337 -801 -527 -1052 -233 -308 -617 -696 -1062 -1070 -39 -33 -125 -105 -191 -161 -315 -265 -518 -418 -617 -465 -47 -22 -76 -29 -123 -29 -57 0 -64 3 -106 40 -56 49 -99 59 -243 60 -119 0 -344 -29 -413 -54 -93 -33 -128 -81 -181 -245 -37 -114 -68 -168 -125 -218 -81 -71 -159 -111 -386 -199 -129 -49 -348 -159 -488 -244 -65 -40 -235 -151 -379 -249 -233 -159 -262 -176 -266 -157 -3 12 -11 87 -18 167 -11 130 -10 157 6 245 45 255 140 560 343 1099 369 980 590 1444 948 1992 375 574 808 1086 1109 1311 159 119 450 248 860 382 248 81 451 176 632 296 220 146 340 254 599 539 409 451 582 594 930 766 179 89 237 109 304 106 l35 -2 -2 -60z m6027 -5174 c-21 -255 -59 -411 -145 -598 -53 -114 -141 -263 -194 -331 -36 -45 -46 -52 -77 -52 l-36 0 5 43 c4 23 9 74 12 112 26 289 82 434 315 813 143 231 139 231 120 13z m-12480 -1371 c17 -9 11 -22 -62 -157 -182 -335 -296 -468 -533 -624 -71 -47 -136 -89 -142 -93 -15 -9 327 467 456 634 52 67 122 150 156 185 63 65 86 76 125 55z m14166 -52 c15 -15 -51 -151 -96 -197 -85 -88 -277 -202 -512 -305 -200 -87 -279 -107 -443 -113 -135 -6 -139 -5 -125 13 143 176 258 287 375 362 161 104 450 222 587 240 75 10 204 10 214 0z m-12322 -608 c-26 -267 -55 -376 -176 -660 -42 -98 -364 -749 -378 -763 -14 -15 -9 174 6 262 19 107 73 271 134 406 5 11 22 52 39 90 31 74 91 200 216 460 42 88 97 202 122 254 24 51 45 92 47 90 2 -2 -3 -65 -10 -139z"></path><path d="M1262 19697 c-81 -194 -45 -311 175 -567 131 -152 494 -499 690 -657 380 -308 709 -493 1214 -682 571 -214 1088 -301 1712 -288 361 8 557 32 702 87 81 30 258 109 268 119 11 11 -26 86 -61 124 -48 50 -245 91 -517 107 -341 19 -522 32 -635 45 -210 25 -285 35 -335 45 -27 5 -88 17 -135 26 -155 28 -433 102 -595 157 -364 123 -704 290 -1108 543 -281 177 -401 267 -547 414 -162 163 -262 248 -435 367 -212 146 -344 233 -353 233 -5 0 -23 -33 -40 -73z"></path><path d="M2485 17856 c-29 -133 0 -247 86 -341 37 -40 144 -125 259 -204 294 -203 567 -334 825 -395 39 -10 79 -19 90 -22 64 -15 271 -45 405 -59 154 -15 731 -22 880 -10 36 2 101 7 145 10 246 16 516 59 690 109 134 39 352 125 510 201 285 137 421 276 349 356 -78 88 -306 61 -805 -96 -253 -79 -544 -137 -784 -154 -139 -11 -486 -6 -630 8 -542 54 -962 180 -1580 473 -318 152 -417 198 -420 198 -2 0 -10 -33 -20 -74z"></path><path d="M6833 17101 c-33 -16 -125 -66 -203 -112 -208 -121 -447 -222 -713 -303 -363 -110 -778 -158 -1362 -159 -326 0 -431 7 -645 44 -195 34 -225 39 -236 39 -16 0 -23 -46 -17 -103 5 -37 14 -56 43 -86 47 -48 153 -121 176 -121 9 0 33 -12 52 -26 38 -30 140 -81 187 -96 40 -12 200 -43 300 -59 110 -17 637 -18 780 -1 288 33 484 75 703 148 154 52 234 86 467 199 520 253 615 342 615 577 l0 88 -42 0 c-27 0 -67 -11 -105 -29z"></path><path d="M18126 16179 c-67 -11 -276 -78 -486 -156 -324 -120 -604 -207 -830 -257 -41 -10 -95 -22 -118 -27 -137 -31 -416 -65 -687 -85 -418 -30 -805 -12 -1105 52 -41 9 -93 20 -115 25 -123 26 -312 79 -475 132 -419 137 -522 170 -633 201 -157 44 -231 58 -287 54 -43 -3 -45 -5 -48 -36 -5 -53 54 -139 218 -321 265 -294 564 -436 1280 -609 223 -54 403 -89 630 -124 192 -29 501 -32 665 -5 594 95 1538 413 1850 622 193 129 285 284 270 450 -2 28 -4 53 -5 57 0 4 -7 14 -16 22 -17 17 -33 18 -108 5z"></path><path d="M12607 16106 c-80 -30 -122 -91 -115 -170 14 -166 277 -468 743 -856 180 -150 419 -303 601 -386 43 -19 93 -42 109 -49 302 -138 825 -271 1165 -296 143 -11 185 -10 315 4 256 29 367 70 477 178 53 52 68 73 68 95 0 35 -6 44 -45 70 -89 60 -230 94 -500 119 -222 20 -237 22 -390 51 -332 63 -757 195 -1080 334 -385 165 -736 413 -943 665 -150 183 -222 241 -312 250 -36 3 -69 0 -93 -9z"></path><path d="M12100 15852 c-60 -9 -110 -100 -110 -202 0 -57 30 -176 62 -250 79 -178 397 -566 792 -968 351 -357 495 -437 856 -473 174 -17 459 0 609 37 129 32 271 115 271 158 0 34 -33 75 -76 95 -47 23 -197 61 -319 81 -244 42 -546 172 -809 349 -223 151 -464 380 -748 711 -171 200 -379 414 -427 439 -34 19 -72 27 -101 23z"></path><path d="M11706 15269 c-2 -8 -6 -25 -9 -39 -3 -14 -14 -71 -26 -128 -35 -173 -29 -284 24 -447 77 -235 398 -766 530 -877 116 -98 665 -117 875 -32 52 21 180 95 180 104 0 3 -100 63 -223 132 -266 152 -363 216 -477 314 -162 140 -267 271 -430 538 -191 312 -277 410 -375 429 -16 3 -38 9 -47 12 -11 4 -19 2 -22 -6z"></path></g></svg>